<svg width="80" height="144" viewBox="0 0 80 144" fill="none" xmlns="http://www.w3.org/2000/svg">
<g filter="url(#filter0_i)">
<path d="M39.7869 0.861252C39.4402 2.8056 39.2713 5.05183 38.5335 17.7568C37.4402 36.4457 36.3735 46.7979 34.7024 55.0015C34.4002 56.493 33.6713 59.3874 33.3424 60.4173L33.1735 60.95L32.258 61.0121C31.7513 61.0476 30.658 61.1364 29.8313 61.2163C29.0046 61.2874 28.2935 61.3229 28.258 61.2874C28.1335 61.1542 27.6535 59.414 27.3424 57.9225C26.1246 52.0716 25.1291 43.7082 23.378 24.6375C22.5602 15.6792 22.3646 13.8592 22.258 13.9657C22.098 14.1166 21.6802 17.6769 20.9335 25.259C19.5024 39.6952 18.5158 47.739 17.4135 54.0693C16.7824 57.7005 15.9913 61.1009 15.3513 62.992L15.0491 63.871L14.0358 64.1995C13.4758 64.377 12.4713 64.7233 11.8046 64.9719C11.138 65.2293 10.5691 65.4335 10.5513 65.4335C10.3824 65.4335 9.40464 62.3528 8.84464 60.071C7.7602 55.6407 6.94242 50.4558 5.68909 40.0858C4.91575 33.6934 4.54242 31.1986 4.24909 30.4528L4.1602 30.2309L4.0802 30.4351C3.54687 31.8201 1.84909 49.6922 0.266866 70.6274C0.169089 71.9414 0.0624219 73.211 0.0357552 73.433L-0.0175781 73.8414L0.995755 74.2498C15.1024 79.8964 26.6491 92.1308 32.9513 108.138C35.2002 113.829 36.978 120.737 38.0446 127.893C38.5246 131.116 38.8269 133.841 39.2446 138.724C39.5646 142.462 39.7246 143.377 40.018 143.279C40.3113 143.181 40.4269 142.4 40.8002 138.103C40.9513 136.389 41.1735 134.072 41.298 132.953C42.6935 120.186 45.7246 109.497 50.4091 100.832C57.218 88.2421 67.1913 78.973 79.0491 74.2231L80.0002 73.8414L79.9557 73.433C79.9291 73.211 79.7246 70.7073 79.5113 67.8751C77.8135 45.9988 76.2757 30.2752 75.8313 30.2752C75.7424 30.2752 75.4224 31.7135 75.2002 33.1163C75.0046 34.3948 74.8713 35.4247 74.1424 41.4176C72.7913 52.4711 71.8135 58.1 70.4357 62.7168C70.1513 63.6668 69.5557 65.327 69.4669 65.4158C69.4491 65.4335 69.1024 65.3181 68.6935 65.1672C68.2846 65.0074 67.2802 64.6523 66.4446 64.3681L64.9335 63.8621L64.5957 62.8499C63.5291 59.6715 62.4269 53.9805 61.3869 46.1675C60.6935 41.0181 60.0535 35.256 58.978 24.4866C58.1424 16.132 57.8402 13.6727 57.6802 14.09C57.5824 14.3652 57.2891 17.2063 56.578 25.037C54.738 45.1021 53.5913 54.3267 52.2757 59.4939C51.778 61.4738 51.8224 61.385 51.2624 61.3229C50.818 61.2696 47.8757 61.021 47.1646 60.9766L46.8091 60.95L46.5513 60.1065C45.138 55.3921 43.9557 48.3161 43.0313 39.0204C42.3824 32.5303 41.9557 26.5197 41.1557 12.6517C40.6846 4.43034 40.3202 0.461716 40.0091 0.150986C39.9646 0.106583 39.8669 0.417328 39.7869 0.861252Z" fill="#ED5936"/>
</g>
<defs>
<filter id="filter0_i" x="-0.0175781" y="0.146759" width="83.0178" height="147.139" filterUnits="userSpaceOnUse" color-interpolation-filters="sRGB">
<feFlood flood-opacity="0" result="BackgroundImageFix"/>
<feBlend mode="normal" in="SourceGraphic" in2="BackgroundImageFix" result="shape"/>
<feColorMatrix in="SourceAlpha" type="matrix" values="0 0 0 0 0 0 0 0 0 0 0 0 0 0 0 0 0 0 127 0" result="hardAlpha"/>
<feOffset dx="3" dy="4"/>
<feGaussianBlur stdDeviation="2"/>
<feComposite in2="hardAlpha" operator="arithmetic" k2="-1" k3="1"/>
<feColorMatrix type="matrix" values="0 0 0 0 1 0 0 0 0 1 0 0 0 0 1 0 0 0 0.4 0"/>
<feBlend mode="normal" in2="shape" result="effect1_innerShadow"/>
</filter>
</defs>
</svg>
