<svg width="531" height="90" viewBox="0 0 531 90" fill="none" xmlns="http://www.w3.org/2000/svg">
<g filter="url(#filter0_i)">
<path d="M0.72 44.8C0.72 39.6 1.64 34.48 3.48 29.44C5.4 24.4 8.16 19.84 11.76 15.76C15.36 11.68 19.76 8.43999 24.96 6.04C30.16 3.56 36.08 2.31999 42.72 2.31999C50.48 2.31999 57.24 4.04 63 7.48C68.76 10.92 73.04 15.4 75.84 20.92L63.12 29.68C61.68 26.48 59.8 23.96 57.48 22.12C55.16 20.28 52.64 18.96 49.92 18.16C47.28 17.36 44.72 16.96 42.24 16.96C38.08 16.96 34.44 17.8 31.32 19.48C28.28 21.16 25.72 23.36 23.64 26.08C21.56 28.8 20 31.84 18.96 35.2C18 38.56 17.52 41.92 17.52 45.28C17.52 50.32 18.56 55.04 20.64 59.44C22.72 63.76 25.64 67.28 29.4 70C33.16 72.72 37.52 74.08 42.48 74.08C45.04 74.08 47.68 73.64 50.4 72.76C53.2 71.88 55.76 70.48 58.08 68.56C60.4 66.64 62.2 64.16 63.48 61.12L77.04 68.92C75.28 73.16 72.52 76.76 68.76 79.72C65 82.6 60.76 84.84 56.04 86.44C51.32 87.96 46.64 88.72 42 88.72C35.92 88.72 30.36 87.48 25.32 85C20.36 82.44 16.04 79.08 12.36 74.92C8.68 70.68 5.8 65.96 3.72 60.76C1.72 55.48 0.72 50.16 0.72 44.8ZM115.391 89.2C108.511 89.2 102.591 87.72 97.6313 84.76C92.7513 81.72 88.9913 77.72 86.3513 72.76C83.7113 67.8 82.3913 62.44 82.3913 56.68C82.3913 50.84 83.7113 45.44 86.3513 40.48C89.0713 35.52 92.8713 31.56 97.7513 28.6C102.711 25.56 108.591 24.04 115.391 24.04C122.191 24.04 128.031 25.56 132.911 28.6C137.871 31.56 141.671 35.52 144.311 40.48C146.951 45.44 148.271 50.84 148.271 56.68C148.271 62.44 146.951 67.8 144.311 72.76C141.671 77.72 137.871 81.72 132.911 84.76C128.031 87.72 122.191 89.2 115.391 89.2ZM98.9513 56.68C98.9513 60.36 99.6713 63.64 101.111 66.52C102.551 69.32 104.511 71.52 106.991 73.12C109.471 74.72 112.271 75.52 115.391 75.52C118.431 75.52 121.191 74.72 123.671 73.12C126.151 71.44 128.111 69.2 129.551 66.4C131.071 63.52 131.831 60.24 131.831 56.56C131.831 52.96 131.071 49.76 129.551 46.96C128.111 44.08 126.151 41.84 123.671 40.24C121.191 38.56 118.431 37.72 115.391 37.72C112.271 37.72 109.471 38.56 106.991 40.24C104.511 41.84 102.551 44.08 101.111 46.96C99.6713 49.76 98.9513 53 98.9513 56.68ZM159.005 0.399998H175.085V67.84C175.085 70.8 175.565 72.76 176.525 73.72C177.485 74.68 178.805 75.16 180.485 75.16C181.765 75.16 183.085 75 184.445 74.68C185.805 74.36 187.005 73.96 188.045 73.48L190.205 85.72C188.045 86.76 185.525 87.56 182.645 88.12C179.765 88.68 177.165 88.96 174.845 88.96C169.805 88.96 165.885 87.64 163.085 85C160.365 82.28 159.005 78.44 159.005 73.48V0.399998ZM197.211 16.36V0.399998H213.291V16.36H197.211ZM197.211 88V25.12H213.291V88H197.211ZM250.957 89.2C245.597 89.2 240.477 88.32 235.597 86.56C230.717 84.8 226.517 82.2 222.997 78.76L228.757 68.32C232.517 71.36 236.197 73.6 239.797 75.04C243.397 76.48 246.917 77.2 250.357 77.2C253.477 77.2 255.957 76.64 257.797 75.52C259.717 74.4 260.677 72.72 260.677 70.48C260.677 68.16 259.517 66.6 257.197 65.8C254.877 64.92 251.637 63.84 247.477 62.56C242.837 61.12 238.957 59.64 235.837 58.12C232.717 56.6 230.357 54.76 228.757 52.6C227.237 50.44 226.477 47.64 226.477 44.2C226.477 38.04 228.797 33.12 233.437 29.44C238.077 25.76 244.237 23.92 251.917 23.92C256.397 23.92 260.637 24.64 264.637 26.08C268.637 27.44 272.277 29.68 275.557 32.8L269.077 43C262.917 38.2 256.957 35.8 251.197 35.8C248.637 35.8 246.357 36.28 244.357 37.24C242.437 38.2 241.477 39.88 241.477 42.28C241.477 44.52 242.397 46.12 244.237 47.08C246.157 48.04 249.037 49.08 252.877 50.2C257.837 51.72 262.037 53.2 265.477 54.64C268.997 56.08 271.637 57.92 273.397 60.16C275.237 62.4 276.157 65.44 276.157 69.28C276.157 75.52 273.877 80.4 269.317 83.92C264.757 87.44 258.637 89.2 250.957 89.2ZM316.253 89.2C309.453 89.2 303.573 87.72 298.613 84.76C293.733 81.8 289.933 77.88 287.213 73C284.493 68.04 283.133 62.68 283.133 56.92C283.133 51 284.453 45.56 287.093 40.6C289.813 35.56 293.653 31.56 298.613 28.6C303.573 25.56 309.493 24.04 316.373 24.04C323.253 24.04 329.133 25.56 334.013 28.6C338.893 31.56 342.613 35.52 345.173 40.48C347.813 45.36 349.133 50.64 349.133 56.32C349.133 58.4 349.013 60.2 348.773 61.72H300.173C300.573 66.6 302.373 70.44 305.573 73.24C308.853 76.04 312.613 77.44 316.853 77.44C320.053 77.44 323.053 76.68 325.853 75.16C328.733 73.56 330.693 71.48 331.733 68.92L345.533 72.76C343.213 77.56 339.493 81.52 334.373 84.64C329.253 87.68 323.213 89.2 316.253 89.2ZM299.813 51.52H332.693C332.213 46.8 330.413 43 327.293 40.12C324.253 37.16 320.533 35.68 316.133 35.68C311.813 35.68 308.093 37.16 304.973 40.12C301.933 43 300.213 46.8 299.813 51.52ZM358.329 64.48V25.12H374.409V61C374.409 70.68 377.889 75.52 384.849 75.52C387.969 75.52 390.969 74.6 393.849 72.76C396.809 70.84 399.209 67.96 401.049 64.12V25.12H417.129V70C417.129 71.76 417.409 73 417.969 73.72C418.529 74.36 419.529 74.76 420.969 74.92V88C419.369 88.32 418.009 88.52 416.889 88.6C415.849 88.68 414.889 88.72 414.009 88.72C411.129 88.72 408.769 88.08 406.929 86.8C405.169 85.44 404.129 83.6 403.809 81.28L403.449 76.24C400.649 80.56 397.049 83.8 392.649 85.96C388.249 88.12 383.409 89.2 378.129 89.2C371.649 89.2 366.729 87.12 363.369 82.96C360.009 78.72 358.329 72.56 358.329 64.48ZM530.789 88H514.709V52.72C514.709 47.76 513.829 44.12 512.069 41.8C510.389 39.4 508.029 38.2 504.989 38.2C501.789 38.2 498.789 39.44 495.989 41.92C493.189 44.32 491.189 47.48 489.989 51.4V88H473.909V52.72C473.909 47.68 473.029 44 471.269 41.68C469.589 39.36 467.229 38.2 464.189 38.2C461.069 38.2 458.069 39.4 455.189 41.8C452.389 44.2 450.389 47.36 449.189 51.28V88H433.109V25.12H447.629V36.76C449.949 32.68 453.109 29.56 457.109 27.4C461.189 25.16 465.829 24.04 471.029 24.04C476.229 24.04 480.269 25.32 483.149 27.88C486.109 30.44 487.989 33.6 488.789 37.36C491.269 33.04 494.509 29.76 498.509 27.52C502.509 25.2 506.989 24.04 511.949 24.04C515.869 24.04 519.029 24.76 521.429 26.2C523.909 27.56 525.829 29.44 527.189 31.84C528.549 34.16 529.469 36.8 529.949 39.76C530.509 42.72 530.789 45.72 530.789 48.76V88Z" fill="white"/>
</g>
<defs>
<filter id="filter0_i" x="0.720215" y="0.399998" width="532.069" height="92.8" filterUnits="userSpaceOnUse" color-interpolation-filters="sRGB">
<feFlood flood-opacity="0" result="BackgroundImageFix"/>
<feBlend mode="normal" in="SourceGraphic" in2="BackgroundImageFix" result="shape"/>
<feColorMatrix in="SourceAlpha" type="matrix" values="0 0 0 0 0 0 0 0 0 0 0 0 0 0 0 0 0 0 127 0" result="hardAlpha"/>
<feOffset dx="2" dy="4"/>
<feGaussianBlur stdDeviation="2.5"/>
<feComposite in2="hardAlpha" operator="arithmetic" k2="-1" k3="1"/>
<feColorMatrix type="matrix" values="0 0 0 0 0 0 0 0 0 0 0 0 0 0 0 0 0 0 0.73 0"/>
<feBlend mode="normal" in2="shape" result="effect1_innerShadow"/>
</filter>
</defs>
</svg>
